<svg width="486" height="348" xmlns="http://www.w3.org/2000/svg" xmlns:xlink="http://www.w3.org/1999/xlink" xml:space="preserve" overflow="hidden"><g transform="translate(-614 -1622)"><g><path d="M616 1966C648.249 1962.85 680.601 1957.81 709.585 1928.15 738.569 1898.48 765.417 1787.63 789.904 1788 814.391 1788.37 831.494 1900.9 856.51 1930.38 881.525 1959.85 940 1964.85 940 1964.85" stroke="#F2847C" stroke-width="5.72917" stroke-linecap="butt" stroke-linejoin="miter" stroke-miterlimit="8" stroke-opacity="1" fill="#F2847C" fill-rule="evenodd" fill-opacity="0.14902"/><path d="M713 1966C745.348 1960 777.801 1950.41 806.874 1893.91 835.948 1837.41 862.878 1626.29 887.441 1627 912.004 1627.71 929.159 1842.02 954.252 1898.15 979.345 1954.29 1038 1963.81 1038 1963.81" stroke="#0281A7" stroke-width="5.72917" stroke-linecap="butt" stroke-linejoin="miter" stroke-miterlimit="8" stroke-opacity="1" fill="#0281A7" fill-rule="evenodd" fill-opacity="0.2"/><path d="M843 1966C868.281 1961.98 893.644 1955.56 916.366 1917.73 939.088 1879.89 960.135 1738.53 979.332 1739 998.529 1739.47 1011.94 1882.98 1031.55 1920.57 1051.16 1958.16 1097 1964.53 1097 1964.53" stroke="#F1D5AA" stroke-width="5.72917" stroke-linecap="butt" stroke-linejoin="miter" stroke-miterlimit="8" stroke-opacity="1" fill="#F1D5AA" fill-rule="evenodd" fill-opacity="0.14902"/></g></g></svg>